<svg viewBox="0 0 836 90" xmlns="http://www.w3.org/2000/svg"><path d="m8.93 4.24h-1.94v6.53l-4.09-6.53h-1.88v9.97h1.95v-6.4l3.44 5.39c.56 1.01 1.15 1.12 1.58 1.12.51 0 .94-.5.94-1.12zm9.58 9.97-3.19-9.13c-.26-.71-.58-.84-1.03-.84-.47 0-.81.17-1.1.84l-3.19 9.13h2.03l.54-1.72h3.35l.56 1.72zm-3.04-3.36h-2.41l1.23-3.95zm12.18-6.61h-1.95v6.53l-4.08-6.53h-1.88v9.97h1.95v-6.4l3.44 5.39c.56 1.01 1.15 1.12 1.58 1.12.51 0 .94-.5.94-1.12zm9.32 4.52c0-3.05-1.21-4.6-3.96-4.6-2.8 0-3.96 1.55-3.96 4.59v.73c0 3.4 1.16 4.81 3.96 4.81 2.76 0 3.96-1.41 3.96-4.77zm-1.94.72c0 1.55-.18 3.08-2.02 3.08-1.89 0-2-1.56-2.01-3.08v-.52c0-1.67.19-3.07 2.01-3.07 1.79 0 2.02 1.4 2.02 3.07zm11.2 4.73-2.23-4.02c.97-.35 1.82-1.36 1.82-2.76 0-1.8-1.2-3.19-3.23-3.19h-1.65c-1.67 0-2.26.69-2.26 2.14v7.83h1.95v-3.7h1.4l1.94 3.7zm-2.35-6.78c0 .77-.56 1.46-1.42 1.46h-1.83v-2.03c0-.5.25-.88.87-.88h.96c.86 0 1.42.54 1.42 1.45zm10.52 6.78v-1.74h-3.38c-.93 0-1.24-.23-1.24-1.03v-1.39h3.1l.14-1.73h-3.24v-2.34h4.62v-1.74h-6.56v7.34c0 1.97.81 2.63 3.04 2.63zm8.84-9.97h-2.03l-2 6.5-2.01-6.5h-2.01l3.09 9.41c.34.84 1.49.85 1.82 0zm3.15 9.97v-9.97h-1.95v9.97zm8.89 0v-1.74h-3.39c-.92 0-1.23-.23-1.23-1.03v-1.39h3.09l.14-1.73h-3.23v-2.34h4.62v-1.74h-6.57v7.34c0 1.97.81 2.63 3.04 2.63zm13.07-9.97h-2.03l-1.55 6.29-1.51-5.2c-.18-.63-.41-1.16-1-1.16-.65 0-.92.53-1.06 1.16l-1.53 5.2-1.54-6.29h-2.03l2.66 9.97h1.63l1.83-6.05 1.84 6.05h1.62zm3.25 9c0-.93-.19-1.13-1.13-1.13s-1.15.2-1.15 1.13c0 .94.21 1.15 1.15 1.15s1.13-.21 1.13-1.15zm9.9-9h-1.95v6.53l-4.08-6.53h-1.88v9.97h1.95v-6.4l3.44 5.39c.56 1.01 1.15 1.12 1.58 1.12.51 0 .94-.5.94-1.12zm8.58 9.97v-1.74h-3.39c-.92 0-1.23-.23-1.23-1.03v-1.39h3.1l.14-1.73h-3.24v-2.34h4.62v-1.74h-6.56v7.34c0 1.97.81 2.63 3.03 2.63zm8.39-8.23v-1.74h-7.28v1.74h2.66v8.23h1.94v-8.23z" fill="#fff" transform="matrix(5.86510235 0 0 5.86510235 141.002784 -9.398826)"/><g fill="#ffd009" transform="matrix(2.89890855 0 0 2.89890855 .135805 1.086195)"><path d="m17.82 4.26a15.53 15.53 0 0 0 -2.1 2.47 1 1 0 0 0 1.65 1.13 13.43 13.43 0 0 1 1.83-2.15 1 1 0 1 0 -1.38-1.45zm-4.39 14.86a1 1 0 0 0 1 .77 1 1 0 0 0 .24 0 1 1 0 0 0 .74-1.21 13.5 13.5 0 0 1 -.37-2.8 1 1 0 0 0 -1-1 1 1 0 0 0 -1 1 15.48 15.48 0 0 0 .39 3.24zm.63-5.27h.18a1 1 0 0 0 1-.82 13.55 13.55 0 0 1 .8-2.7 1 1 0 1 0 -1.85-.77 15.52 15.52 0 0 0 -.92 3.1 1 1 0 0 0 .79 1.19zm26.62-4.17a13.62 13.62 0 0 1 .95 2.66 1 1 0 0 0 1.94-.47 15.62 15.62 0 0 0 -1.09-3 1 1 0 0 0 -1.8.86zm-1.48-2.41a1 1 0 1 0 1.59-1.22 15.4 15.4 0 0 0 -2.24-2.35 1 1 0 0 0 -1.3 1.52 13.45 13.45 0 0 1 1.95 2.05zm-12.61-5.14h.13a13.63 13.63 0 0 1 2.83-.13 1 1 0 1 0 .15-2 15.6 15.6 0 0 0 -3.24.09 1 1 0 0 0 .13 2zm-5.67 2.01a1 1 0 0 0 .52-.14 13.64 13.64 0 0 1 2.56-1.22 1 1 0 1 0 -.68-1.88 15.56 15.56 0 0 0 -2.92 1.4 1 1 0 0 0 .52 1.85zm-4.72 20.8a1 1 0 0 0 1.59-1.21 13.64 13.64 0 0 1 -1.47-2.41 1 1 0 1 0 -1.8.86 15.65 15.65 0 0 0 1.68 2.76zm21.59.37a13.51 13.51 0 0 1 -2.25 1.69 1 1 0 0 0 .52 1.85 1 1 0 0 0 .52-.15 15.52 15.52 0 0 0 2.57-2 1 1 0 0 0 -1.37-1.45zm3.21-4.63a13.5 13.5 0 0 1 -1.35 2.48 1 1 0 1 0 1.65 1.13 15.59 15.59 0 0 0 1.56-2.87l-.92-.4zm3-5.61a1 1 0 1 0 -2 .06v.38a13.4 13.4 0 0 1 -.22 2.43 1 1 0 0 0 .8 1.17h.18a1 1 0 0 0 1-.82 15.37 15.37 0 0 0 .24-2.78zm-7.72-11.84a1 1 0 0 0 -.41-1.35 15.76 15.76 0 0 0 -1.43-.68 16.13 16.13 0 0 0 -1.55-.56 1 1 0 1 0 -.57 1.92 13.84 13.84 0 0 1 1.36.44c.43.18.85.38 1.25.59a1 1 0 0 0 .47.12 1 1 0 0 0 .88-.48zm-14.23 24.14a13.51 13.51 0 0 1 -2.33-1.6 1 1 0 0 0 -1.3 1.52 15.34 15.34 0 0 0 2.67 1.83 1 1 0 0 0 1-1.76zm10.95.86a13.56 13.56 0 0 1 -2.74.66 1 1 0 0 0 .13 2h.13a15.52 15.52 0 0 0 3.15-.76 1 1 0 0 0 -.67-1.9zm-5.57.77a13.46 13.46 0 0 1 -2.77-.52 1 1 0 1 0 -.57 1.92 15.48 15.48 0 0 0 3.19.6h.08a1 1 0 0 0 .08-2z"/><path d="m17.83 28.8a13.5 13.5 0 1 1 -2.33-26.8 13.59 13.59 0 0 1 2.33.2 1 1 0 0 0 .34-2 15.5 15.5 0 1 0 -2.67 30.8 15.63 15.63 0 0 0 2.67-.23 1 1 0 0 0 -.34-2zm6.76-.74a15.5 15.5 0 0 0 2.13-23.25 1 1 0 0 0 -1.45 1.38 13.5 13.5 0 0 1 -1.86 20.25 1 1 0 1 0 1.17 1.62z"/></g></svg>